<svg xmlns="http://www.w3.org/2000/svg" viewBox="0 0 35.17 35.21"><defs><style>.cls-1{fill:#231f20;}</style></defs><title>User Icon</title><g id="Layer_2" data-name="Layer 2"><g id="Layer_1-2" data-name="Layer 1"><path id="User_Icon" data-name="User Icon" class="cls-1" d="M17.55,25a4.85,4.85,0,0,1-3.21-1.07,4.57,4.57,0,0,1-.78,1.34,2,2,0,0,0-.51,2.15c.24.56.9,1.24,2.66,1.24h3.75c1.76,0,2.42-.69,2.67-1.26a2,2,0,0,0-.46-2.16,5.35,5.35,0,0,1-.87-1.34A4.79,4.79,0,0,1,17.56,25ZM24.2,14.62a.7.7,0,0,0-.61-.66c0-.31,0-.6,0-1,0-4.18-2.09-6.39-6-6.39s-6,2.25-6,6.5c0,.34,0,.6,0,.87a.73.73,0,0,0-.69.75,6.5,6.5,0,0,0,.66,3.06,1.05,1.05,0,0,0,.77.67,7.6,7.6,0,0,0,2.44,4.63l.07.08a3.94,3.94,0,0,0,2.67.9,3.84,3.84,0,0,0,2.7-.93l.2-.21a7.24,7.24,0,0,0,2.31-4.37.93.93,0,0,0,.81-.66,6.77,6.77,0,0,0,.63-3.26Zm8.77,3A15.39,15.39,0,1,0,17.58,33,15.4,15.4,0,0,0,33,17.61m-33,0a17.59,17.59,0,1,1,17.58,17.6A17.59,17.59,0,0,1,0,17.61"/></g></g></svg>